<svg xmlns="http://www.w3.org/2000/svg" xmlns:xlink="http://www.w3.org/1999/xlink" width="500" zoomAndPan="magnify" viewBox="0 0 375 374.999991" height="500" preserveAspectRatio="xMidYMid meet" version="1.0"><defs><g/></defs><g fill="#000000" fill-opacity="1"><g transform="translate(55.03711, 197.249987)"><g><path d="M 6.046875 -26.59375 C 8.453125 -26.59375 10.21875 -26 11.34375 -24.8125 C 12.46875 -23.625 13.03125 -21.722656 13.03125 -19.109375 C 13.03125 -16.171875 12.390625 -14.050781 11.109375 -12.75 C 9.835938 -11.445312 8.160156 -10.796875 6.078125 -10.796875 L 4.71875 -10.796875 L 4.71875 -0.609375 C 4.71875 -0.378906 4.671875 -0.222656 4.578125 -0.140625 C 4.492188 -0.0664062 4.195312 -0.0234375 3.6875 -0.015625 C 3.175781 -0.00390625 2.503906 0 1.671875 0 L 1.671875 -25.984375 C 1.671875 -26.210938 1.710938 -26.367188 1.796875 -26.453125 C 1.890625 -26.546875 2.050781 -26.59375 2.28125 -26.59375 Z M 6.390625 -13.640625 C 7.503906 -13.640625 8.328125 -14.085938 8.859375 -14.984375 C 9.390625 -15.890625 9.65625 -17.378906 9.65625 -19.453125 C 9.65625 -20.898438 9.421875 -22.003906 8.953125 -22.765625 C 8.484375 -23.523438 7.703125 -23.90625 6.609375 -23.90625 L 4.71875 -23.90625 L 4.71875 -13.640625 Z M 6.390625 -13.640625 "/></g></g></g><g fill="#000000" fill-opacity="1"><g transform="translate(68.752304, 197.249987)"><g><path d="M 1.703125 -17.671875 C 3.328125 -18.804688 5.050781 -19.375 6.875 -19.375 C 7.8125 -19.375 8.488281 -19.238281 8.90625 -18.96875 C 9.320312 -18.707031 9.53125 -18.3125 9.53125 -17.78125 C 9.53125 -17.144531 9.421875 -16.550781 9.203125 -16 C 8.660156 -16.300781 8.050781 -16.453125 7.375 -16.453125 C 6.382812 -16.453125 5.546875 -16.160156 4.859375 -15.578125 L 4.828125 -0.609375 C 4.828125 -0.378906 4.773438 -0.222656 4.671875 -0.140625 C 4.566406 -0.0664062 4.257812 -0.0234375 3.75 -0.015625 C 3.25 -0.00390625 2.566406 0 1.703125 0 Z M 1.703125 -17.671875 "/></g></g></g><g fill="#000000" fill-opacity="1"><g transform="translate(78.744265, 197.249987)"><g><path d="M 6.984375 0.375 C 5.566406 0.375 4.441406 0.132812 3.609375 -0.34375 C 2.773438 -0.820312 2.132812 -1.773438 1.6875 -3.203125 C 1.25 -4.640625 1.03125 -6.738281 1.03125 -9.5 C 1.03125 -16.082031 3.144531 -19.375 7.375 -19.375 C 8.769531 -19.375 9.882812 -19.085938 10.71875 -18.515625 C 11.550781 -17.953125 12.179688 -16.953125 12.609375 -15.515625 C 13.046875 -14.085938 13.265625 -12.109375 13.265625 -9.578125 C 13.265625 -6.128906 12.738281 -3.609375 11.6875 -2.015625 C 10.632812 -0.421875 9.066406 0.375 6.984375 0.375 Z M 7.0625 -2.203125 C 7.976562 -2.203125 8.679688 -2.734375 9.171875 -3.796875 C 9.671875 -4.859375 9.921875 -6.785156 9.921875 -9.578125 C 9.921875 -11.554688 9.820312 -13.0625 9.625 -14.09375 C 9.4375 -15.132812 9.148438 -15.84375 8.765625 -16.21875 C 8.390625 -16.601562 7.890625 -16.796875 7.265625 -16.796875 C 6.328125 -16.796875 5.609375 -16.265625 5.109375 -15.203125 C 4.617188 -14.140625 4.375 -12.210938 4.375 -9.421875 C 4.375 -7.398438 4.472656 -5.867188 4.671875 -4.828125 C 4.878906 -3.785156 5.171875 -3.085938 5.546875 -2.734375 C 5.929688 -2.378906 6.4375 -2.203125 7.0625 -2.203125 Z M 7.0625 -2.203125 "/></g></g></g><g fill="#000000" fill-opacity="1"><g transform="translate(93.029352, 197.249987)"><g><path d="M 7.328125 0.375 C 6.035156 0.375 4.953125 0.160156 4.078125 -0.265625 C 3.210938 -0.691406 2.507812 -1.578125 1.96875 -2.921875 C 1.4375 -4.265625 1.171875 -6.226562 1.171875 -8.8125 C 1.171875 -12.382812 1.707031 -15.035156 2.78125 -16.765625 C 3.863281 -18.503906 5.265625 -19.375 6.984375 -19.375 C 8.148438 -19.375 9.066406 -19.125 9.734375 -18.625 L 9.734375 -26.53125 C 9.734375 -27.007812 9.8125 -27.34375 9.96875 -27.53125 C 10.132812 -27.71875 10.40625 -27.832031 10.78125 -27.875 C 11.164062 -27.914062 11.84375 -27.9375 12.8125 -27.9375 L 12.8125 -0.765625 C 11.1875 -0.00390625 9.359375 0.375 7.328125 0.375 Z M 7.453125 -2.359375 C 8.410156 -2.359375 9.171875 -2.546875 9.734375 -2.921875 L 9.734375 -16.21875 C 9.296875 -16.550781 8.710938 -16.71875 7.984375 -16.71875 C 5.703125 -16.71875 4.5625 -14.195312 4.5625 -9.15625 C 4.5625 -7.3125 4.675781 -5.894531 4.90625 -4.90625 C 5.132812 -3.914062 5.445312 -3.242188 5.84375 -2.890625 C 6.25 -2.535156 6.785156 -2.359375 7.453125 -2.359375 Z M 7.453125 -2.359375 "/></g></g></g><g fill="#000000" fill-opacity="1"><g transform="translate(107.504399, 197.249987)"><g><path d="M 7.375 0.375 C 5.875 0.375 4.71875 0.148438 3.90625 -0.296875 C 3.101562 -0.753906 2.535156 -1.429688 2.203125 -2.328125 C 1.867188 -3.234375 1.703125 -4.429688 1.703125 -5.921875 L 1.703125 -18.390625 C 1.703125 -18.617188 1.742188 -18.769531 1.828125 -18.84375 C 1.921875 -18.925781 2.226562 -18.972656 2.75 -18.984375 C 3.269531 -18.992188 3.972656 -19 4.859375 -19 L 4.859375 -5.65625 C 4.859375 -4.363281 5.03125 -3.476562 5.375 -3 C 5.71875 -2.519531 6.410156 -2.28125 7.453125 -2.28125 C 8.460938 -2.28125 9.3125 -2.519531 10 -3 L 10 -18.390625 C 10 -18.617188 10.046875 -18.769531 10.140625 -18.84375 C 10.242188 -18.925781 10.539062 -18.972656 11.03125 -18.984375 C 11.53125 -18.992188 12.210938 -19 13.078125 -19 L 13.078125 -0.984375 C 12.316406 -0.578125 11.425781 -0.25 10.40625 0 C 9.394531 0.25 8.382812 0.375 7.375 0.375 Z M 7.375 0.375 "/></g></g></g><g fill="#000000" fill-opacity="1"><g transform="translate(122.283378, 197.249987)"><g><path d="M 6.921875 0.375 C 5.878906 0.375 5.097656 0.15625 4.578125 -0.28125 C 4.054688 -0.726562 3.710938 -1.347656 3.546875 -2.140625 C 3.390625 -2.941406 3.3125 -3.988281 3.3125 -5.28125 L 3.3125 -16.375 L 0.71875 -16.375 C 0.71875 -17.0625 0.726562 -17.613281 0.75 -18.03125 C 0.78125 -18.445312 0.835938 -18.710938 0.921875 -18.828125 C 1.015625 -18.941406 1.164062 -19 1.375 -19 L 3.3125 -19 L 3.3125 -24.78125 C 3.3125 -25.132812 3.390625 -25.378906 3.546875 -25.515625 C 3.710938 -25.648438 3.976562 -25.738281 4.34375 -25.78125 C 4.71875 -25.820312 5.382812 -25.84375 6.34375 -25.84375 L 6.34375 -19 L 10.296875 -19 C 10.296875 -18.3125 10.28125 -17.753906 10.25 -17.328125 C 10.226562 -16.898438 10.171875 -16.632812 10.078125 -16.53125 C 9.992188 -16.425781 9.851562 -16.375 9.65625 -16.375 L 6.34375 -16.375 L 6.34375 -5.28125 C 6.34375 -4.238281 6.425781 -3.46875 6.59375 -2.96875 C 6.757812 -2.476562 7.144531 -2.234375 7.75 -2.234375 C 8.15625 -2.234375 8.507812 -2.28125 8.8125 -2.375 C 9.113281 -2.46875 9.492188 -2.613281 9.953125 -2.8125 C 10.109375 -2.300781 10.1875 -1.796875 10.1875 -1.296875 C 10.1875 -0.679688 9.867188 -0.25 9.234375 0 C 8.597656 0.25 7.828125 0.375 6.921875 0.375 Z M 6.921875 0.375 "/></g></g></g><g fill="#000000" fill-opacity="1"><g transform="translate(133.377108, 197.249987)"><g><path d="M 6.984375 0.375 C 5.566406 0.375 4.441406 0.132812 3.609375 -0.34375 C 2.773438 -0.820312 2.132812 -1.773438 1.6875 -3.203125 C 1.25 -4.640625 1.03125 -6.738281 1.03125 -9.5 C 1.03125 -16.082031 3.144531 -19.375 7.375 -19.375 C 8.769531 -19.375 9.882812 -19.085938 10.71875 -18.515625 C 11.550781 -17.953125 12.179688 -16.953125 12.609375 -15.515625 C 13.046875 -14.085938 13.265625 -12.109375 13.265625 -9.578125 C 13.265625 -6.128906 12.738281 -3.609375 11.6875 -2.015625 C 10.632812 -0.421875 9.066406 0.375 6.984375 0.375 Z M 7.0625 -2.203125 C 7.976562 -2.203125 8.679688 -2.734375 9.171875 -3.796875 C 9.671875 -4.859375 9.921875 -6.785156 9.921875 -9.578125 C 9.921875 -11.554688 9.820312 -13.0625 9.625 -14.09375 C 9.4375 -15.132812 9.148438 -15.84375 8.765625 -16.21875 C 8.390625 -16.601562 7.890625 -16.796875 7.265625 -16.796875 C 6.328125 -16.796875 5.609375 -16.265625 5.109375 -15.203125 C 4.617188 -14.140625 4.375 -12.210938 4.375 -9.421875 C 4.375 -7.398438 4.472656 -5.867188 4.671875 -4.828125 C 4.878906 -3.785156 5.171875 -3.085938 5.546875 -2.734375 C 5.929688 -2.378906 6.4375 -2.203125 7.0625 -2.203125 Z M 7.0625 -2.203125 "/></g></g></g><g fill="#000000" fill-opacity="1"><g transform="translate(147.662195, 197.249987)"><g><path d="M 1.703125 -17.671875 C 3.328125 -18.804688 5.050781 -19.375 6.875 -19.375 C 7.8125 -19.375 8.488281 -19.238281 8.90625 -18.96875 C 9.320312 -18.707031 9.53125 -18.3125 9.53125 -17.78125 C 9.53125 -17.144531 9.421875 -16.550781 9.203125 -16 C 8.660156 -16.300781 8.050781 -16.453125 7.375 -16.453125 C 6.382812 -16.453125 5.546875 -16.160156 4.859375 -15.578125 L 4.828125 -0.609375 C 4.828125 -0.378906 4.773438 -0.222656 4.671875 -0.140625 C 4.566406 -0.0664062 4.257812 -0.0234375 3.75 -0.015625 C 3.25 -0.00390625 2.566406 0 1.703125 0 Z M 1.703125 -17.671875 "/></g></g></g><g fill="#000000" fill-opacity="1"><g transform="translate(157.654156, 197.249987)"><g><path d="M 6.3125 0.375 C 4.6875 0.375 3.410156 -0.0078125 2.484375 -0.78125 C 1.566406 -1.550781 1.109375 -3.085938 1.109375 -5.390625 C 1.109375 -7.796875 1.566406 -9.4375 2.484375 -10.3125 C 3.410156 -11.1875 4.644531 -11.625 6.1875 -11.625 C 7.382812 -11.625 8.3125 -11.460938 8.96875 -11.140625 L 8.96875 -14.140625 C 8.96875 -14.992188 8.773438 -15.585938 8.390625 -15.921875 C 8.015625 -16.253906 7.421875 -16.421875 6.609375 -16.421875 C 5.703125 -16.421875 4.78125 -16.335938 3.84375 -16.171875 C 2.90625 -16.003906 2.144531 -15.796875 1.5625 -15.546875 C 1.28125 -16.078125 1.140625 -16.671875 1.140625 -17.328125 C 1.140625 -17.835938 1.28125 -18.179688 1.5625 -18.359375 C 1.9375 -18.609375 2.664062 -18.835938 3.75 -19.046875 C 4.84375 -19.265625 6.050781 -19.375 7.375 -19.375 C 9.019531 -19.375 10.207031 -19.019531 10.9375 -18.3125 C 11.675781 -17.601562 12.046875 -16.414062 12.046875 -14.75 L 12.046875 -12.734375 C 12.046875 -7.160156 11.96875 -3.21875 11.8125 -0.90625 C 11.207031 -0.53125 10.4375 -0.222656 9.5 0.015625 C 8.5625 0.253906 7.5 0.375 6.3125 0.375 Z M 6.84375 -2.203125 C 7.25 -2.203125 7.640625 -2.265625 8.015625 -2.390625 C 8.398438 -2.515625 8.679688 -2.65625 8.859375 -2.8125 C 8.929688 -3.675781 8.96875 -5.726562 8.96875 -8.96875 C 8.488281 -9.21875 7.894531 -9.34375 7.1875 -9.34375 C 6.269531 -9.34375 5.554688 -9.078125 5.046875 -8.546875 C 4.546875 -8.015625 4.296875 -6.988281 4.296875 -5.46875 C 4.296875 -4.175781 4.503906 -3.304688 4.921875 -2.859375 C 5.335938 -2.421875 5.976562 -2.203125 6.84375 -2.203125 Z M 6.84375 -2.203125 "/></g></g></g><g fill="#000000" fill-opacity="1"><g transform="translate(171.103413, 197.249987)"><g/></g></g><g fill="#000000" fill-opacity="1"><g transform="translate(177.106182, 197.249987)"><g><path d="M 5.96875 0.375 C 4.375 0.375 3.140625 0.148438 2.265625 -0.296875 C 1.390625 -0.753906 0.953125 -1.273438 0.953125 -1.859375 C 0.953125 -2.191406 1.019531 -2.5625 1.15625 -2.96875 C 1.300781 -3.375 1.5 -3.738281 1.75 -4.0625 C 2.738281 -3.175781 4.039062 -2.734375 5.65625 -2.734375 C 8.164062 -2.734375 9.421875 -4.023438 9.421875 -6.609375 C 9.421875 -7.523438 9.253906 -8.34375 8.921875 -9.0625 C 8.597656 -9.78125 8.019531 -10.632812 7.1875 -11.625 L 3.375 -16.078125 C 2.519531 -17.109375 1.90625 -18.046875 1.53125 -18.890625 C 1.164062 -19.742188 0.984375 -20.628906 0.984375 -21.546875 C 0.984375 -23.191406 1.5625 -24.507812 2.71875 -25.5 C 3.875 -26.488281 5.476562 -26.984375 7.53125 -26.984375 C 9.21875 -26.984375 10.46875 -26.8125 11.28125 -26.46875 C 12.09375 -26.125 12.5 -25.660156 12.5 -25.078125 C 12.5 -24.441406 12.242188 -23.859375 11.734375 -23.328125 C 11.460938 -23.554688 10.976562 -23.765625 10.28125 -23.953125 C 9.582031 -24.148438 8.828125 -24.25 8.015625 -24.25 C 6.878906 -24.25 5.972656 -24.019531 5.296875 -23.5625 C 4.628906 -23.101562 4.296875 -22.457031 4.296875 -21.625 C 4.296875 -20.96875 4.429688 -20.363281 4.703125 -19.8125 C 4.984375 -19.269531 5.429688 -18.617188 6.046875 -17.859375 L 10.1875 -13.1875 C 11.144531 -12.039062 11.804688 -10.988281 12.171875 -10.03125 C 12.546875 -9.070312 12.734375 -7.984375 12.734375 -6.765625 C 12.734375 -4.609375 12.207031 -2.878906 11.15625 -1.578125 C 10.101562 -0.273438 8.375 0.375 5.96875 0.375 Z M 5.96875 0.375 "/></g></g></g><g fill="#000000" fill-opacity="1"><g transform="translate(190.707404, 197.249987)"><g><path d="M 6.921875 0.375 C 5.878906 0.375 5.097656 0.15625 4.578125 -0.28125 C 4.054688 -0.726562 3.710938 -1.347656 3.546875 -2.140625 C 3.390625 -2.941406 3.3125 -3.988281 3.3125 -5.28125 L 3.3125 -16.375 L 0.71875 -16.375 C 0.71875 -17.0625 0.726562 -17.613281 0.75 -18.03125 C 0.78125 -18.445312 0.835938 -18.710938 0.921875 -18.828125 C 1.015625 -18.941406 1.164062 -19 1.375 -19 L 3.3125 -19 L 3.3125 -24.78125 C 3.3125 -25.132812 3.390625 -25.378906 3.546875 -25.515625 C 3.710938 -25.648438 3.976562 -25.738281 4.34375 -25.78125 C 4.71875 -25.820312 5.382812 -25.84375 6.34375 -25.84375 L 6.34375 -19 L 10.296875 -19 C 10.296875 -18.3125 10.28125 -17.753906 10.25 -17.328125 C 10.226562 -16.898438 10.171875 -16.632812 10.078125 -16.53125 C 9.992188 -16.425781 9.851562 -16.375 9.65625 -16.375 L 6.34375 -16.375 L 6.34375 -5.28125 C 6.34375 -4.238281 6.425781 -3.46875 6.59375 -2.96875 C 6.757812 -2.476562 7.144531 -2.234375 7.75 -2.234375 C 8.15625 -2.234375 8.507812 -2.28125 8.8125 -2.375 C 9.113281 -2.46875 9.492188 -2.613281 9.953125 -2.8125 C 10.109375 -2.300781 10.1875 -1.796875 10.1875 -1.296875 C 10.1875 -0.679688 9.867188 -0.25 9.234375 0 C 8.597656 0.25 7.828125 0.375 6.921875 0.375 Z M 6.921875 0.375 "/></g></g></g><g fill="#000000" fill-opacity="1"><g transform="translate(201.801134, 197.249987)"><g><path d="M 7.859375 -2.578125 C 9.378906 -2.578125 10.828125 -2.984375 12.203125 -3.796875 C 12.378906 -3.242188 12.46875 -2.546875 12.46875 -1.703125 C 12.46875 -1.128906 11.953125 -0.640625 10.921875 -0.234375 C 9.898438 0.171875 8.664062 0.375 7.21875 0.375 C 5.925781 0.375 4.84375 0.132812 3.96875 -0.34375 C 3.09375 -0.820312 2.398438 -1.707031 1.890625 -3 C 1.390625 -4.289062 1.140625 -6.128906 1.140625 -8.515625 C 1.140625 -11.472656 1.445312 -13.75 2.0625 -15.34375 C 2.6875 -16.945312 3.476562 -18.019531 4.4375 -18.5625 C 5.40625 -19.101562 6.546875 -19.375 7.859375 -19.375 C 11.078125 -19.375 12.6875 -17.347656 12.6875 -13.296875 C 12.6875 -11.273438 12.550781 -9.628906 12.28125 -8.359375 C 11.164062 -8.128906 9.863281 -7.96875 8.375 -7.875 C 6.894531 -7.789062 5.535156 -7.75 4.296875 -7.75 C 4.347656 -6.382812 4.503906 -5.332031 4.765625 -4.59375 C 5.035156 -3.863281 5.414062 -3.34375 5.90625 -3.03125 C 6.40625 -2.726562 7.054688 -2.578125 7.859375 -2.578125 Z M 7.53125 -16.6875 C 6.613281 -16.6875 5.875 -16.207031 5.3125 -15.25 C 4.757812 -14.300781 4.429688 -12.613281 4.328125 -10.1875 C 6.835938 -10.1875 8.570312 -10.335938 9.53125 -10.640625 C 9.664062 -11.222656 9.734375 -11.984375 9.734375 -12.921875 C 9.703125 -14.335938 9.535156 -15.316406 9.234375 -15.859375 C 8.929688 -16.410156 8.363281 -16.6875 7.53125 -16.6875 Z M 7.53125 -16.6875 "/></g></g></g><g fill="#000000" fill-opacity="1"><g transform="translate(215.516328, 197.249987)"><g><path d="M 3.234375 7.484375 C 2.671875 7.484375 2.28125 7.390625 2.0625 7.203125 C 1.851562 7.015625 1.75 6.664062 1.75 6.15625 L 1.75 -17.859375 C 3.34375 -18.867188 5.191406 -19.375 7.296875 -19.375 C 9.328125 -19.375 10.863281 -18.789062 11.90625 -17.625 C 12.957031 -16.46875 13.484375 -14.414062 13.484375 -11.46875 C 13.484375 -6.882812 12.945312 -3.765625 11.875 -2.109375 C 10.800781 -0.453125 9.453125 0.375 7.828125 0.375 C 7.171875 0.375 6.582031 0.269531 6.0625 0.0625 C 5.539062 -0.132812 5.128906 -0.382812 4.828125 -0.6875 L 4.828125 7.265625 C 4.347656 7.410156 3.816406 7.484375 3.234375 7.484375 Z M 6.875 -2.359375 C 9.03125 -2.359375 10.109375 -5.285156 10.109375 -11.140625 C 10.109375 -12.628906 10 -13.78125 9.78125 -14.59375 C 9.570312 -15.40625 9.253906 -15.960938 8.828125 -16.265625 C 8.410156 -16.566406 7.847656 -16.71875 7.140625 -16.71875 C 6.285156 -16.71875 5.515625 -16.476562 4.828125 -16 L 4.828125 -3.609375 C 5.335938 -2.773438 6.019531 -2.359375 6.875 -2.359375 Z M 6.875 -2.359375 "/></g></g></g><g fill="#000000" fill-opacity="1"><g transform="translate(230.029358, 197.249987)"><g><path d="M 1.703125 -26.53125 C 1.703125 -27.007812 1.78125 -27.34375 1.9375 -27.53125 C 2.09375 -27.71875 2.359375 -27.832031 2.734375 -27.875 C 3.117188 -27.914062 3.789062 -27.9375 4.75 -27.9375 L 4.75 -17.890625 C 5.3125 -18.378906 5.976562 -18.75 6.75 -19 C 7.519531 -19.25 8.285156 -19.375 9.046875 -19.375 C 10.585938 -19.375 11.628906 -18.972656 12.171875 -18.171875 C 12.722656 -17.378906 13 -16.109375 13 -14.359375 L 13 -0.609375 C 13 -0.378906 12.941406 -0.222656 12.828125 -0.140625 C 12.710938 -0.0664062 12.398438 -0.0234375 11.890625 -0.015625 C 11.390625 -0.00390625 10.71875 0 9.875 0 L 9.875 -13.53125 C 9.875 -14.488281 9.722656 -15.226562 9.421875 -15.75 C 9.117188 -16.269531 8.523438 -16.53125 7.640625 -16.53125 C 7.160156 -16.53125 6.664062 -16.445312 6.15625 -16.28125 C 5.644531 -16.113281 5.175781 -15.851562 4.75 -15.5 L 4.75 -0.609375 C 4.75 -0.378906 4.703125 -0.222656 4.609375 -0.140625 C 4.523438 -0.0664062 4.234375 -0.0234375 3.734375 -0.015625 C 3.242188 -0.00390625 2.566406 0 1.703125 0 Z M 1.703125 -26.53125 "/></g></g></g><g fill="#000000" fill-opacity="1"><g transform="translate(244.46641, 197.249987)"><g/></g></g><g fill="#000000" fill-opacity="1"><g transform="translate(250.46918, 197.249987)"><g><path d="M 1.21875 0 C 0.882812 -0.28125 0.71875 -0.671875 0.71875 -1.171875 C 0.71875 -1.660156 0.820312 -2.117188 1.03125 -2.546875 L 10.140625 -23.859375 L 3.046875 -23.859375 C 2.253906 -23.859375 1.707031 -23.820312 1.40625 -23.75 L 1.40625 -25.953125 C 1.40625 -26.160156 1.460938 -26.316406 1.578125 -26.421875 C 1.691406 -26.535156 1.847656 -26.59375 2.046875 -26.59375 L 13.375 -26.59375 C 13.582031 -26.320312 13.6875 -25.992188 13.6875 -25.609375 C 13.6875 -25.148438 13.582031 -24.679688 13.375 -24.203125 L 4.109375 -2.734375 L 11.46875 -2.734375 C 12.507812 -2.734375 13.257812 -2.835938 13.71875 -3.046875 L 13.71875 -0.609375 C 13.71875 -0.203125 13.515625 0 13.109375 0 Z M 1.21875 0 "/></g></g></g><g fill="#000000" fill-opacity="1"><g transform="translate(265.096193, 197.249987)"><g><path d="M 7.859375 -2.578125 C 9.378906 -2.578125 10.828125 -2.984375 12.203125 -3.796875 C 12.378906 -3.242188 12.46875 -2.546875 12.46875 -1.703125 C 12.46875 -1.128906 11.953125 -0.640625 10.921875 -0.234375 C 9.898438 0.171875 8.664062 0.375 7.21875 0.375 C 5.925781 0.375 4.84375 0.132812 3.96875 -0.34375 C 3.09375 -0.820312 2.398438 -1.707031 1.890625 -3 C 1.390625 -4.289062 1.140625 -6.128906 1.140625 -8.515625 C 1.140625 -11.472656 1.445312 -13.75 2.0625 -15.34375 C 2.6875 -16.945312 3.476562 -18.019531 4.4375 -18.5625 C 5.40625 -19.101562 6.546875 -19.375 7.859375 -19.375 C 11.078125 -19.375 12.6875 -17.347656 12.6875 -13.296875 C 12.6875 -11.273438 12.550781 -9.628906 12.28125 -8.359375 C 11.164062 -8.128906 9.863281 -7.96875 8.375 -7.875 C 6.894531 -7.789062 5.535156 -7.75 4.296875 -7.75 C 4.347656 -6.382812 4.503906 -5.332031 4.765625 -4.59375 C 5.035156 -3.863281 5.414062 -3.34375 5.90625 -3.03125 C 6.40625 -2.726562 7.054688 -2.578125 7.859375 -2.578125 Z M 7.53125 -16.6875 C 6.613281 -16.6875 5.875 -16.207031 5.3125 -15.25 C 4.757812 -14.300781 4.429688 -12.613281 4.328125 -10.1875 C 6.835938 -10.1875 8.570312 -10.335938 9.53125 -10.640625 C 9.664062 -11.222656 9.734375 -11.984375 9.734375 -12.921875 C 9.703125 -14.335938 9.535156 -15.316406 9.234375 -15.859375 C 8.929688 -16.410156 8.363281 -16.6875 7.53125 -16.6875 Z M 7.53125 -16.6875 "/></g></g></g><g fill="#000000" fill-opacity="1"><g transform="translate(278.811387, 197.249987)"><g><path d="M 1.703125 -18.09375 C 2.492188 -18.445312 3.457031 -18.75 4.59375 -19 C 5.738281 -19.25 6.789062 -19.375 7.75 -19.375 C 9.726562 -19.375 11.109375 -18.988281 11.890625 -18.21875 C 12.679688 -17.445312 13.078125 -16.132812 13.078125 -14.28125 L 13.078125 -0.609375 C 13.078125 -0.378906 13.023438 -0.222656 12.921875 -0.140625 C 12.816406 -0.0664062 12.503906 -0.0234375 11.984375 -0.015625 C 11.460938 -0.00390625 10.773438 0 9.921875 0 L 9.921875 -13.375 C 9.921875 -14.644531 9.765625 -15.519531 9.453125 -16 C 9.148438 -16.476562 8.546875 -16.71875 7.640625 -16.71875 C 7.179688 -16.71875 6.6875 -16.660156 6.15625 -16.546875 C 5.625 -16.429688 5.164062 -16.257812 4.78125 -16.03125 L 4.78125 -0.609375 C 4.78125 -0.378906 4.726562 -0.222656 4.625 -0.140625 C 4.53125 -0.0664062 4.226562 -0.0234375 3.71875 -0.015625 C 3.21875 -0.00390625 2.546875 0 1.703125 0 Z M 1.703125 -18.09375 "/></g></g></g><g fill="#000000" fill-opacity="1"><g transform="translate(293.362411, 197.249987)"><g><path d="M 6.3125 0.375 C 4.6875 0.375 3.410156 -0.0078125 2.484375 -0.78125 C 1.566406 -1.550781 1.109375 -3.085938 1.109375 -5.390625 C 1.109375 -7.796875 1.566406 -9.4375 2.484375 -10.3125 C 3.410156 -11.1875 4.644531 -11.625 6.1875 -11.625 C 7.382812 -11.625 8.3125 -11.460938 8.96875 -11.140625 L 8.96875 -14.140625 C 8.96875 -14.992188 8.773438 -15.585938 8.390625 -15.921875 C 8.015625 -16.253906 7.421875 -16.421875 6.609375 -16.421875 C 5.703125 -16.421875 4.78125 -16.335938 3.84375 -16.171875 C 2.90625 -16.003906 2.144531 -15.796875 1.5625 -15.546875 C 1.28125 -16.078125 1.140625 -16.671875 1.140625 -17.328125 C 1.140625 -17.835938 1.28125 -18.179688 1.5625 -18.359375 C 1.9375 -18.609375 2.664062 -18.835938 3.75 -19.046875 C 4.84375 -19.265625 6.050781 -19.375 7.375 -19.375 C 9.019531 -19.375 10.207031 -19.019531 10.9375 -18.3125 C 11.675781 -17.601562 12.046875 -16.414062 12.046875 -14.75 L 12.046875 -12.734375 C 12.046875 -7.160156 11.96875 -3.21875 11.8125 -0.90625 C 11.207031 -0.53125 10.4375 -0.222656 9.5 0.015625 C 8.5625 0.253906 7.5 0.375 6.3125 0.375 Z M 6.84375 -2.203125 C 7.25 -2.203125 7.640625 -2.265625 8.015625 -2.390625 C 8.398438 -2.515625 8.679688 -2.65625 8.859375 -2.8125 C 8.929688 -3.675781 8.96875 -5.726562 8.96875 -8.96875 C 8.488281 -9.21875 7.894531 -9.34375 7.1875 -9.34375 C 6.269531 -9.34375 5.554688 -9.078125 5.046875 -8.546875 C 4.546875 -8.015625 4.296875 -6.988281 4.296875 -5.46875 C 4.296875 -4.175781 4.503906 -3.304688 4.921875 -2.859375 C 5.335938 -2.421875 5.976562 -2.203125 6.84375 -2.203125 Z M 6.84375 -2.203125 "/></g></g></g><g fill="#000000" fill-opacity="1"><g transform="translate(306.811667, 197.249987)"><g><path d="M 5.78125 0.375 C 4.382812 0.375 3.257812 0.210938 2.40625 -0.109375 C 1.5625 -0.441406 1.140625 -0.910156 1.140625 -1.515625 C 1.140625 -2.128906 1.328125 -2.726562 1.703125 -3.3125 C 2.742188 -2.695312 4 -2.390625 5.46875 -2.390625 C 6.457031 -2.390625 7.222656 -2.585938 7.765625 -2.984375 C 8.316406 -3.378906 8.59375 -3.957031 8.59375 -4.71875 C 8.59375 -5.269531 8.476562 -5.785156 8.25 -6.265625 C 8.019531 -6.742188 7.625 -7.226562 7.0625 -7.71875 L 3.375 -10.875 C 1.90625 -12.0625 1.171875 -13.398438 1.171875 -14.890625 C 1.171875 -16.285156 1.695312 -17.378906 2.75 -18.171875 C 3.800781 -18.972656 5.351562 -19.375 7.40625 -19.375 C 9.132812 -19.375 10.359375 -19.144531 11.078125 -18.6875 C 11.796875 -18.238281 12.15625 -17.757812 12.15625 -17.25 C 12.15625 -17.019531 12.09375 -16.757812 11.96875 -16.46875 C 11.84375 -16.175781 11.691406 -15.914062 11.515625 -15.6875 C 10.398438 -16.375 9.144531 -16.71875 7.75 -16.71875 C 6.84375 -16.71875 6.113281 -16.550781 5.5625 -16.21875 C 5.019531 -15.894531 4.75 -15.441406 4.75 -14.859375 C 4.75 -14.472656 4.847656 -14.109375 5.046875 -13.765625 C 5.253906 -13.429688 5.660156 -13.007812 6.265625 -12.5 L 9.796875 -9.65625 C 10.640625 -8.84375 11.226562 -8.082031 11.5625 -7.375 C 11.90625 -6.664062 12.078125 -5.84375 12.078125 -4.90625 C 12.078125 -3.226562 11.515625 -1.925781 10.390625 -1 C 9.265625 -0.0820312 7.726562 0.375 5.78125 0.375 Z M 5.78125 0.375 "/></g></g></g></svg>